<svg width="167" height="94" viewBox="0 0 167 94" fill="none" xmlns="http://www.w3.org/2000/svg">
<path d="M38.5 62C50.98 57.1304 61.0333 50.6377 64.5 48C54.9667 51.8551 36.8037 60.0391 38.8837 61.5" stroke="#D7D7D7"/>
<path d="M37.5 56C50.94 50.4348 61.7667 43.0145 65.5 40C55.2333 44.4058 35.6732 53.1876 37.9132 54.8571" stroke="#D7D7D7"/>
<path d="M36.5 49C50.42 42.7391 61.6333 34.3913 65.5 31C54.8667 35.9565 34.608 45.836 36.928 47.7143" stroke="#D7D7D7"/>
<path d="M35.5 41C48.46 35.087 58.9 27.2029 62.5 24C52.6 28.6812 33.7385 38.6189 35.8985 40.3929" stroke="#D7D7D7"/>
<path d="M39.648 68C51.097 63.1304 60.3197 56.6377 63.5 54C54.7543 57.8551 37.7398 65.9304 39.648 67.3913" stroke="#D7D7D7"/>
<path d="M40.6357 74C51.1305 69.1304 59.5848 62.6377 62.5 60C54.4831 63.8551 38.8865 71.9304 40.6357 73.3913" stroke="#D7D7D7"/>
<path d="M40.3952 74C32.2855 69.8261 25.7527 64.2609 23.5 62C29.6949 65.3043 41.7468 72.2261 40.3952 73.4783" stroke="#F0FFE9" stroke-opacity="0.18"/>
<path d="M37.3014 22.5C33.2645 14.5267 30.9837 6.12261 30.5 3C33.5166 9.18631 39.0997 21.628 37.2992 21.9045" stroke="#F0FFE9" stroke-opacity="0.18"/>
<path d="M36.7267 25.8972C30.3356 19.0206 25.9126 11.1005 24.5 8C29.3439 13.3782 38.4359 24.0867 36.7294 25.0456" stroke="#F0FFE9" stroke-opacity="0.18"/>
<path d="M35.2624 30.2191C28.4868 25.7225 23.2643 20.1995 21.5 18C26.6634 21.5349 36.6557 28.8376 35.3182 29.7689" stroke="#F0FFE9" stroke-opacity="0.18"/>
<path d="M36.5 45C28.82 41.5217 22.6333 36.8841 20.5 35C26.3667 37.7536 37.4556 43.2422 36.1756 44.2857" stroke="#F0FFE9" stroke-opacity="0.18"/>
<path d="M35.4075 37C28.2519 33.8696 22.4877 29.6957 20.5 28C25.9661 30.4783 36.6001 35.6696 35.4075 36.6087" stroke="#F0FFE9" stroke-opacity="0.18"/>
<path d="M39.3952 68C31.2855 63.4783 24.7527 57.4493 22.5 55C28.6949 58.5797 40.7468 66.0783 39.3952 67.4348" stroke="#F0FFE9" stroke-opacity="0.18"/>
<path d="M38.5 60C30.34 55.8261 23.7667 50.2609 21.5 48C27.7333 51.3043 39.5153 58.3193 38.1553 59.5714" stroke="#F0FFE9" stroke-opacity="0.18"/>
<path d="M37.5 53C29.34 48.8261 22.7667 43.2609 20.5 41C26.7333 44.3043 38.5153 50.8907 37.1553 52.1429" stroke="#F0FFE9" stroke-opacity="0.18"/>
<path d="M36.5 25C44.9579 18.9993 52.256 11.0755 54.5 8C48.0502 12.7321 35.3687 23.1766 36.9648 24.6675" stroke="#D7D7D7"/>
<path d="M37.9837 21.3006C44.2338 14.462 49.1171 6.12852 50.5 3C45.7628 8.35326 36.6602 19.8888 38.3267 20.9223" stroke="#D7D7D7"/>
<path d="M37.9627 20.2911C42.315 11.1143 43.5568 4.75394 44 1C40.7559 8.13683 36.4203 19.6898 38.5 20.2911" stroke="#D7D7D7"/>
<path d="M35.81 30.4297C45.4212 23.8219 52.9413 15.39 55.5 12C48.1698 17.2112 34.0143 28.2689 35.8127 29.9166" stroke="#D7D7D7"/>
<path d="M37.5 93.5C38.2134 91.8948 38.7711 90.2244 39.1964 88.5C39.979 85.3264 40.3131 81.9699 40.344 78.5C40.3471 78.1411 40.3471 77.7809 40.344 77.4197C40.1721 57.6355 30.7524 34.4458 38.5 20.5" stroke="#E5FDDA"/>
<path d="M35.8104 35.5041C47.0024 28.5537 55.6001 20.272 58.5 17C49.9726 22.4505 33.4765 33.655 35.7114 34.8687" stroke="#D7D7D7"/>
<path d="M79.3687 92.1346C62.6011 24.4158 73.287 3.89454 80.7259 2.09875C86.329 25.3091 93.902 75.8107 79.3687 92.1346Z" stroke="#EBFFE1"/>
<path d="M101.5 92.5V37.5M101.5 37.5V3.5C112.5 6 131.4 13.9 119 25.5C106.6 37.1 102.167 38.3333 101.5 37.5Z" stroke="#EBFFE1"/>
<path d="M101.5 38C119.1 81.2 125.833 92 127 92" stroke="#EBFFE1"/>
<path d="M0.5 94V4H19" stroke="#EBFFE1"/>
<path d="M0 39.5H11.5" stroke="#EBFFE1"/>
<path d="M37.5 93.5H70" stroke="#EBFFE1"/>
<path d="M139 93L148.5 4.5L166 93" stroke="#EBFFE1"/>
<path d="M145 40H155" stroke="#EBFFE1"/>
</svg>
